<svg fill="none" height="73" viewBox="0 0 204 73" width="204" xmlns="http://www.w3.org/2000/svg"><path d="m125.782 34.3959h-22.592c-2.208 0-3.3149-2.6461-1.752-4.1928l15.974-15.8307c.71-.7033.71-1.8458 0-2.5464-.709-.7033-1.862-.7033-2.572 0l-15.9737 15.8307c-1.5607 1.5467-4.2307.4527-4.2307-1.738v-22.38936c0-.997-.813-1.80267-1.819-1.80267s-1.819.80567-1.819 1.80267v22.38936c0 2.188-2.67 3.2847-4.2307 1.738l-15.974-15.8307c-.7097-.7033-1.8625-.7033-2.5721 0-.7097.7033-.7097 1.8431 0 2.5464l15.9739 15.8307c1.5607 1.5467.4568 4.1928-1.751 4.1928h-22.592c-1.0033 0-1.819.8057-1.819 1.8027s.813 1.8026 1.819 1.8026h22.592c2.2078 0 3.3145 2.6462 1.751 4.1928l-15.9739 15.8307c-.7097.7033-.7097 1.8431 0 2.5464.7096.7033 1.8597.7033 2.5721 0l15.974-15.8307c1.5607-1.5467 4.2307-.4527 4.2307 1.7353v22.3894c0 .9943.813 1.8026 1.819 1.8026s1.819-.8083 1.819-1.8026v-22.3894c0-2.188 2.67-3.2847 4.2307-1.738l15.9737 15.8307c.71.7033 1.86.7033 2.572 0 .71-.7033.71-1.8458 0-2.5464l-15.974-15.8307c-1.5602-1.5466-.456-4.1927 1.752-4.1927h22.592c1.003 0 1.819-.8057 1.819-1.8027s-.813-1.8027-1.819-1.8027z" fill="#000"/><g stroke="#000" stroke-linecap="round" stroke-linejoin="round" stroke-width="3.34519"><path d="m45.2266 37.1614-21.6947-35.43473-21.21256 35.43473 21.21256 12.0526z"/><path d="m23.3877 2.35374.3856 46.61966"/><path d="m2.72754 37.1704 20.97336-10.0609 21.5261 10.0609"/><path d="m23.6266 54.8117-21.54848-11.72 21.54848 27.5764 21.0696-27.5764z"/><path d="m23.3877 54.9988.3857 15.6682"/></g><path d="m201.57 1.72667v13.29203h-22.935v12.3193h8.265v14.2656h6.26v-14.1787h9.94l-.001 27.4697v13.293h-24.466v-13.4082h-13.761v13.4082h-24.466v-40.7627h9.94v14.1787h5.455v-14.2656h9.071v-25.61133z" fill="#000"/></svg>