<svg width="564" height="182" viewBox="0 0 564 182" fill="none" xmlns="http://www.w3.org/2000/svg">
<path d="M190.381 30.1845H204.502C214.325 30.1845 219.543 35.5459 219.543 46.884V68.7935C219.543 80.1308 214.325 85.4929 204.502 85.4929H190.381V30.1845ZM199.896 77.6789H203.197C208.262 77.6789 210.027 75.7634 210.027 69.9423V45.7351C210.027 39.9126 208.263 37.9971 203.197 37.9971H199.896V77.6789Z" fill="white"/>
<path d="M228.757 85.4929V30.1845H254.236V38.4568H238.272V52.705H250.551V60.9787H238.272V77.2185H255.31V85.4922H228.756L228.757 85.4929Z" fill="white"/>
<path d="M285.319 30.1845H294.682L283.094 85.4929H273.578L261.99 30.1845H271.354L278.26 68.5625H278.414L285.32 30.1845H285.319Z" fill="white"/>
<path d="M322.234 48.6467V44.3553C322.234 39.6831 320.084 37.6916 317.629 37.6916C313.792 37.6916 312.564 39.6831 312.564 43.8196V71.8578C312.564 75.9943 313.792 77.9858 317.629 77.9858C321.083 77.9858 322.234 75.9943 322.234 72.3942V65.7291H331.75V72.0873C331.75 79.9013 327.145 86.2595 317.628 86.2595C307.651 86.2595 303.047 79.9013 303.047 72.0873V43.5908C303.047 35.7768 307.651 29.4186 317.628 29.4186C327.145 29.4186 331.75 36.3125 331.75 44.587V48.6474L322.234 48.6467Z" fill="white"/>
<path d="M341.424 43.5908C341.424 35.7768 346.028 29.4186 356.005 29.4186C365.982 29.4186 370.586 35.7768 370.586 43.5908V72.0873C370.586 79.9013 365.982 86.2595 356.005 86.2595C346.028 86.2595 341.424 79.9013 341.424 72.0873V43.5908ZM350.939 71.8578C350.939 75.9943 352.168 77.9858 356.004 77.9858C359.841 77.9858 361.069 75.9943 361.069 71.8578V43.8196C361.069 39.6831 359.841 37.6916 356.004 37.6916C352.167 37.6916 350.939 39.6831 350.939 43.8196V71.8578Z" fill="white"/>
<path d="M381.336 85.4929V30.1845H390.162L401.75 61.8221H401.903V30.1845H410.499V85.4929H402.211L390.086 50.9444H389.932V85.4929H381.336Z" fill="white"/>
<path d="M422.781 85.4929V30.1845H431.607L443.195 61.8221H443.348V30.1845H451.944V85.4929H443.656L431.531 50.9444H431.377V85.4929H422.782H422.781Z" fill="white"/>
<path d="M464.227 85.4929V30.1845H489.706V38.4568H473.744V52.705H486.022V60.9787H473.744V77.2185H490.78V85.4922H464.227L464.227 85.4929Z" fill="white"/>
<path d="M519.025 48.6467V44.3553C519.025 39.6831 516.875 37.6916 514.42 37.6916C510.583 37.6916 509.356 39.6831 509.356 43.8196V71.8578C509.356 75.9943 510.583 77.9858 514.42 77.9858C517.874 77.9858 519.025 75.9943 519.025 72.3942V65.7291H528.541V72.0873C528.541 79.9013 523.936 86.2595 514.419 86.2595C504.443 86.2595 499.838 79.9013 499.838 72.0873V43.5908C499.838 35.7768 504.443 29.4186 514.419 29.4186C523.936 29.4186 528.541 36.3125 528.541 44.587V48.6474L519.025 48.6467Z" fill="white"/>
<path d="M545.276 38.4568H536.066V30.1845H564V38.4568H554.792V85.4929H545.276V38.4568Z" fill="white"/>
<path d="M286.278 97.2756H190.381V152.584H286.278V97.2756Z" fill="#74ACDF"/>
<path d="M210.096 141.931H204.408L210.712 107.772H218.01L224.313 141.931H218.626L217.583 134.361H211.137L210.095 141.931H210.096ZM211.992 129.251H216.731L214.409 114.585H214.314L211.992 129.251Z" fill="white"/>
<path d="M236.446 141.931H230.568V107.772H238.816C245.403 107.772 248.768 110.564 248.768 117.849C248.768 123.338 246.636 125.561 244.645 126.46L249.621 141.931H243.65L239.479 127.785C238.721 127.879 237.488 127.926 236.446 127.926V141.931ZM236.446 123.101H238.531C241.706 123.101 242.891 121.918 242.891 117.849C242.891 113.781 241.706 112.598 238.531 112.598H236.446V123.101Z" fill="white"/>
<path d="M263.314 124.615H272.935V141.93H270.092L269.002 139.375C267.248 141.457 265.826 142.403 263.077 142.403C258.433 142.403 255.209 139.091 255.209 133.651V116.051C255.209 111.226 258.053 107.299 263.835 107.299C269.713 107.299 272.651 111.557 272.651 116.667V118.843H267.058C267.058 113.733 266.015 112.408 263.693 112.408C262.271 112.408 261.086 113.26 261.086 116.146V133.698C261.086 135.874 261.796 137.294 263.835 137.294C266.205 137.294 267.058 135.969 267.058 132.563V129.251H263.313V124.615H263.314Z" fill="white"/>
<path d="M154.215 56.0653L60.6166 2.13815C56.8266 -0.0459265 52.117 -0.0459265 48.327 2.13815L6.14549 26.4489C2.35478 28.6337 0 32.705 0 37.0746V144.924C0 149.295 2.35623 153.367 6.14767 155.552L48.3553 179.863C50.2503 180.955 52.3737 181.501 54.4986 181.5C56.6235 181.5 58.7491 180.953 60.6441 179.862L154.215 125.935C158.007 123.75 160.361 119.679 160.361 115.31V66.6917C160.361 62.3221 158.006 58.25 154.215 56.0653H154.215Z" fill="#37364C"/>
<path d="M96.0254 154.066C99.2041 152.234 99.2041 147.655 96.0254 145.823L79.5376 136.321L63.0498 126.819C59.8712 124.987 55.8984 127.277 55.8984 130.94V168.949C55.8984 172.613 59.8712 174.902 63.0498 173.07L96.0254 154.066Z" fill="#FF85A6"/>
<path d="M49.3514 6.41021L11.4567 28.2495C8.97278 29.6814 8.97278 33.2605 11.4567 34.6924L46.7008 55.0042C51.5365 57.7913 57.4942 57.7913 62.3299 55.0042L97.5602 34.7004C100.044 33.2684 100.044 29.6894 97.5602 28.2574L59.651 6.40949C56.4644 4.5729 52.5388 4.5729 49.3522 6.40949L49.3514 6.41021Z" fill="#F6B40E"/>
<path d="M4.50977 90.6957V146.268C4.50977 148.064 5.46995 149.724 7.02845 150.623L47.1344 173.736C49.7989 175.271 53.1298 173.352 53.1298 170.281V70.2594C53.1298 65.0768 50.3602 60.2881 45.8638 57.6972L10.4261 37.2739C7.79645 35.7587 4.50977 37.6525 4.50977 40.6836V90.6957Z" fill="#74ACDF"/>
<path d="M155.935 109.742V64.6237C155.935 62.929 155.029 61.3631 153.559 60.5154L113.286 37.3057C110.633 35.7768 107.316 37.688 107.316 40.7465V87.1999C107.316 88.8946 108.222 90.4604 109.692 91.3081L148.808 113.851C151.975 115.677 155.936 113.394 155.936 109.743L155.935 109.742Z" fill="white"/>
<path d="M62.9381 113.902L101.765 91.5253C103.504 90.5227 104.576 88.6702 104.576 86.6656V41.7999C104.576 38.2584 100.735 36.0447 97.6622 37.8154L64.5133 56.9197C59.1822 59.992 55.8984 65.6697 55.8984 71.8144V109.844C55.8984 113.45 59.8095 115.705 62.9381 113.902Z" fill="white"/>
<path d="M62.2712 123.211L103.397 146.913C104.956 147.811 106.877 147.811 108.436 146.913L149.936 122.995C151.994 121.809 151.994 118.845 149.936 117.66L108.436 93.7434C106.878 92.845 104.957 92.845 103.398 93.7434L62.2712 117.445C60.0476 118.727 60.0476 121.929 62.2712 123.211Z" fill="white"/>
<path d="M123.561 100.259L106.041 69.8945L88.5215 100.259L106.041 111.406L123.561 100.259ZM107.324 90.0739V77.1975L118.427 96.4161L107.324 90.0739ZM119.453 99.875L107.324 107.562V93.0202L119.453 99.875ZM104.757 90.0739L93.7184 96.3517L104.757 77.1975V90.0739ZM104.757 93.0202V107.562L92.6277 99.875L104.757 93.0202Z" fill="#37364C"/>
<path d="M106.041 114.993L88.5215 103.846L106.041 129.407L123.561 103.846L106.041 114.993ZM104.694 117.172L104.758 117.235V123.065L97.6984 112.687L104.694 117.172ZM114.449 112.687L107.325 123.065V117.235L107.389 117.172L114.448 112.688L114.449 112.687Z" fill="#37364C"/>
</svg>
